<?xml version="1.0" standalone="no"?>
<!DOCTYPE svg PUBLIC "-//W3C//DTD SVG 20010904//EN"
 "http://www.w3.org/TR/2001/REC-SVG-20010904/DTD/svg10.dtd">
<svg version="1.0" xmlns="http://www.w3.org/2000/svg"
 width="1024.000000pt" height="1024.000000pt" viewBox="0 0 1024.000000 1024.000000"
 preserveAspectRatio="xMidYMid meet">
<metadata>
Created by potrace 1.14, written by Peter Selinger 2001-2017
</metadata>
<g transform="translate(0.000000,1024.000000) scale(0.100000,-0.100000)"
fill="#000000" stroke="none">
<path d="M4705 10229 c-1077 -93 -2046 -491 -2880 -1183 -154 -128 -503 -477
-631 -631 -276 -333 -485 -654 -669 -1030 -297 -606 -462 -1207 -515 -1879
-13 -166 -13 -606 0 -772 54 -685 228 -1310 535 -1919 264 -524 578 -952 1001
-1365 402 -392 812 -681 1319 -930 539 -265 1058 -418 1661 -491 225 -27 747
-38 972 -20 700 56 1321 228 1932 537 972 490 1773 1291 2264 2264 308 610
481 1232 537 1932 18 225 7 747 -20 972 -71 589 -223 1111 -475 1631 -255 525
-554 950 -960 1363 -276 281 -500 466 -816 676 -732 487 -1522 764 -2397 841
-184 16 -686 18 -858 4z m1372 -1734 c294 -42 629 -172 848 -329 427 -307 716
-811 786 -1370 43 -345 -80 -786 -320 -1154 -205 -312 -513 -614 -827 -810
-346 -215 -770 -356 -1184 -392 -145 -13 -187 -8 -318 41 -111 40 -148 66
-212 145 -34 43 -66 87 -70 99 -11 29 -11 366 -1 384 7 11 13 10 35 -4 153
-101 579 -24 964 175 667 343 1160 859 1289 1349 35 129 36 316 4 436 -40 154
-163 362 -272 460 -250 226 -1172 268 -1952 89 -346 -79 -1082 -335 -1617
-562 -310 -131 -424 -155 -497 -106 -16 11 -52 21 -88 24 l-60 5 -33 65 c-30
58 -33 71 -27 115 4 28 6 78 6 112 -1 34 3 71 8 82 13 23 228 184 366 273 263
170 715 403 995 514 531 209 1081 338 1592 374 160 11 456 4 585 -15z m-1428
-1189 c9 -11 9 -35 2 -98 -33 -260 -134 -1824 -153 -2353 -7 -195 -13 -713
-13 -1170 0 -854 5 -977 50 -1345 20 -159 19 -212 -6 -271 -23 -52 -27 -89
-14 -126 7 -21 4 -23 -32 -23 -43 0 -73 21 -98 70 -30 57 -73 31 -158 -94 -69
-102 -125 -152 -186 -166 -50 -12 -55 -11 -67 6 -16 24 -22 29 -56 55 -16 11
-28 29 -28 39 0 10 -18 53 -40 95 l-39 77 -25 246 c-14 136 -31 324 -38 417
-17 237 -17 1474 0 1745 27 426 85 1105 162 1875 22 220 49 503 59 629 11 125
23 232 29 238 5 5 50 16 99 24 56 9 127 30 189 56 183 77 335 108 363 74z"/>
</g>
</svg>
